<?xml version="1.0" encoding="utf-8"?>
<!-- Generator: Adobe Illustrator 24.1.2, SVG Export Plug-In . SVG Version: 6.00 Build 0)  -->
<svg version="1.1" id="Слой_1" xmlns="http://www.w3.org/2000/svg" xmlns:xlink="http://www.w3.org/1999/xlink" x="0px" y="0px"
	 viewBox="0 0 64 64" style="enable-background:new 0 0 64 64;" xml:space="preserve">
<style type="text/css">
	.st0{fill:#000000;}
</style>
<g id="_x34_5-bitcoin">
	<g>
		<path class="st0" d="M44.9,30.5c3-1.6,5-4.3,4.5-8.9c-0.6-6.3-5.7-8.4-12.6-9V4h-5.3v8.4c-1.4,0-2.8,0-4.2,0.1V4h-5.3v8.7
			c-2,0.1-4.2,0-10.6,0v5.7c4.2-0.1,6.4-0.3,6.9,2.3v23.8c-0.3,2.1-2,1.8-5.8,1.8l-1.1,6.3c9.7,0,10.6,0,10.6,0V60h5.3v-7.3
			c1.4,0,2.9,0,4.2,0V60h5.3v-7.4c8.9-0.5,14.8-2.7,15.6-11.1C53.1,34.7,50,31.7,44.9,30.5z M27.5,18.7c3,0,12.4-0.9,12.4,5.3
			c0,6-9.4,5.3-12.4,5.3V18.7z M27.5,46.3V34.6c3.6,0,14.6-1,14.6,5.8C42,47,31.1,46.3,27.5,46.3L27.5,46.3z"/>
	</g>
</g>
<g id="Layer_1">
</g>
</svg>
